mtllib materials.mtl
v -0.0284355 -0.438228 0.02351014
v 0.001875401 -0.438228 -0.02898988
v 0.0005500019 -0.7805853 -0.0399929
v -0.02901594 -0.7879853 0.01241028
v -0.05874639 -0.438228 -0.02898988
v -0.05958324 -0.7882657 -0.03994006
v 0.01136942 -0.2322735 -0.01112792
v 0.001874931 -1.085318 -0.02898884
v -0.02843596 -1.085318 0.02351116
v -0.01610646 -0.2360011 0.04278111
v -0.04860491 -0.2406057 -0.008186042
v 0.009198219 -0.006265044 0.02266128
v -0.0158255 -0.0173974 0.07674353
v -0.04786413 -0.0264442 0.02608106
v 0.008839346 0.2571869 0.09761003
v -0.01543847 0.2493336 0.1526002
v -0.04312004 0.2265602 0.1037115
v -0.01485671 0.7352757 0.183641
v -0.03505316 0.7489172 0.2391479
v -0.07435199 0.7346321 0.1952556
v -0.03133845 1.022555 0.1983634
v -0.08982524 1.033788 0.2096817
v -0.04838974 1.04217 0.2531311
v -0.04714229 1.323152 0.1703013
v -0.06228473 1.355158 0.2195081
v -0.1028602 1.346507 0.1753064
v -0.04264934 1.479108 0.1194228
v -0.0548225 1.518027 0.1642799
v -0.09532671 1.509103 0.1200671
v -0.03162534 1.580196 0.06522368
v -0.04222485 1.625334 0.1042776
v -0.08170768 1.613907 0.05971828
v -0.02478049 1.689028 -0.02767617
v -0.02589744 1.734744 0.01212014
v -0.07771283 1.71346 -0.01105657
v -0.01949237 1.787087 -0.1427942
v -0.03055477 1.837549 -0.1110726
v -0.07595677 1.799777 -0.124746
v -0.1055289 1.869971 -0.2108562
v -0.05874684 -1.085318 -0.02898881
v -0.03946929 1.851576 -0.2565907
v -0.05159637 1.910574 -0.2047149
v -0.3445226 1.917529 -0.3927964
v -0.5684915 1.879888 -0.2637841
v -0.6574872 1.747751 -0.2665711
v -0.3392693 2.015499 -0.3326721
v -0.5073594 2.093995 -0.1036103
v -0.5323656 1.994214 -0.1289985
v -0.278094 2.105872 -0.2965509
v -0.2700407 2.269785 -0.1133819
v -0.3826065 2.236434 -0.07863835
v -0.1745964 2.157452 -0.3111179
v -0.04854172 2.318274 -0.2390288
v -0.1040194 2.305398 -0.184872
v -0.07203912 2.149267 -0.3658862
v 0.188686 2.276541 -0.3588941
v 0.1069645 2.268108 -0.2658961
v -0.003931277 2.083595 -0.4377458
v 0.1322567 2.053734 -0.5332755
v 0.2132904 2.171834 -0.5124698
v -0.005137771 1.987271 -0.503356
v 0.09071878 1.865294 -0.6173528
v 0.2910173 1.83096 -0.667482
v -0.07602554 1.896101 -0.5361816
v -0.06227889 1.715094 -0.6353649
v 0.05406784 1.644756 -0.6790916
v -0.1787363 1.843845 -0.5184902
v -0.2642845 1.707765 -0.5467089
v -0.2203102 1.49969 -0.6165581
v -0.2820804 1.852706 -0.4668462
v -0.4442659 1.764929 -0.4336573
v -0.506976 1.598862 -0.4680855
v -0.1804348 1.931406 -0.4972419
v -0.3141806 1.874507 -0.3295491
v -0.3126581 1.971208 -0.264502
v -0.2406726 1.91133 -0.1970097
v -0.2477519 2.06285 -0.2333035
v -0.1442539 2.11443 -0.2478704
v -0.1900776 1.970652 -0.1669741
v -0.04169701 2.106246 -0.3026389
v -0.02119406 2.02071 -0.2279005
v 0.02074583 2.041423 -0.3766891
v 0.0163713 1.946056 -0.4436246
v 0.02662254 1.979708 -0.3068877
v -0.04568275 1.85308 -0.4729346
v -0.02966659 1.817539 -0.3681936
v -0.1491808 1.8015 -0.4583675
v -0.1119056 1.782898 -0.365427
v -0.2517378 1.809684 -0.4035991
v -0.2022109 1.788285 -0.322667
v -0.1466061 1.858181 -0.1749297
v -0.1530282 1.828777 -0.2058661
v -0.1103822 2.019135 -0.1814953
v -0.07289921 1.928854 -0.161096
v -0.1173187 1.906656 -0.1539255
v -0.02801073 1.930452 -0.1930282
v -0.005182125 1.903084 -0.236464
v -0.005203277 1.860769 -0.2634214
v -0.03277696 1.820902 -0.276366
v -0.08200117 1.797349 -0.2613182
v -0.1261486 1.800873 -0.2377421
v -0.06057546 1.835827 -0.1735623
v -0.1240086 1.956151 -0.5035992
v -0.08758276 2.00305 -0.4859856
v -0.08507078 2.054191 -0.4511285
v -0.117432 2.090038 -0.4123423
v -0.1723061 2.0969 -0.3844419
v -0.2287323 2.072155 -0.3780842
v -0.2651582 2.025255 -0.3956978
v -0.2676701 1.974115 -0.4305549
v -0.2353089 1.938267 -0.4693411
v -0.262923 2.084361 -0.2649273
v -0.3278293 1.992719 -0.2961257
v -0.1594253 2.135941 -0.2794943
v -0.05686808 2.127757 -0.3342626
v 0.005574442 2.062934 -0.4083127
v 0.004052088 1.966233 -0.4733599
v -0.06085414 1.87459 -0.5045583
v -0.164352 1.82301 -0.4899912
v -0.2669092 1.831195 -0.4352227
v -0.3293518 1.896018 -0.3611727
v -0.4630171 2.162445 -0.01112172
v -0.6349434 2.071074 0.02328467
v -0.6341043 1.907668 -0.1418422
v -0.6858645 1.834332 -0.2200787
v -0.6195631 1.713853 -0.3387216
v -0.6054958 1.649937 -0.4284353
v -0.3905167 1.490516 -0.5198949
v -0.1328124 1.577955 -0.6228194
v -0.01754402 1.55712 -0.7136202
v 0.1544415 1.686926 -0.7183447
v 0.2214738 1.769675 -0.7275698
v 0.3580211 2.028995 -0.6361687
v 0.2811522 2.266865 -0.408582
v 0.2931641 2.358378 -0.3128775
v 0.09661877 2.321785 -0.2570292
v 0.07569658 2.461932 -0.160881
v -0.1760088 2.29527 -0.09754074
v -0.6450017 2.001536 0.0127133
v -0.5483722 2.150581 0.1044946
v -0.6767212 2.031617 0.089728
v -0.6144905 2.121333 0.1523138
v -0.6806517 2.084052 0.1426386
v -0.4023546 2.317841 0.05514657
v -0.3778172 2.365228 0.141357
v -0.311675 2.383878 0.1245226
v -0.3169241 2.354601 0.04612394
v -0.3274306 2.401584 0.1677663
v -0.2659121 2.413723 0.1354438
v 0.02944904 2.49096 -0.07950011
v 0.1667091 2.417232 -0.19966
v 0.1096155 2.533959 -0.08057296
v 0.1892825 2.494038 -0.153213
v 0.1657702 2.534893 -0.1147062
v -0.7351266 1.862318 -0.1165985
v -0.7557946 1.735558 -0.2238583
v -0.8084386 1.80933 -0.1357345
v -0.81665 1.772653 -0.1769753
v -0.5857369 1.556991 -0.4681035
v -0.6769324 1.650133 -0.3633186
v -0.6942852 1.573898 -0.444129
v -0.6413219 1.554339 -0.4594638
v -0.6951721 1.609339 -0.3975896
v -0.2372521 1.445184 -0.6244987
v -0.3855893 1.41704 -0.5699098
v -0.2683787 1.399594 -0.6280472
v -0.2905381 1.560332 -0.5859041
v -0.3400441 1.379415 -0.6091434
v 0.08233672 1.557814 -0.7144817
v 0.04936761 1.443807 -0.7242304
v -0.08011466 1.445642 -0.6987476
v -0.005911358 1.417135 -0.7249192
v 0.3348477 1.771535 -0.7177699
v 0.3397561 1.726352 -0.7542596
v 0.225501 1.652467 -0.7571976
v 0.3045818 1.673421 -0.7836819
v 0.2649465 2.372358 -0.2342783
v 0.3686127 2.32873 -0.3759306
v 0.335221 2.412272 -0.2446576
v 0.3990755 2.373406 -0.3318943
v 0.3861811 2.416298 -0.2833153
v 0.3766184 2.205773 -0.5573995
v 0.4491635 2.184034 -0.5776674
v 0.4585579 2.078373 -0.6372243
v 0.3499778 2.117092 -0.6065843
v 0.484933 2.131021 -0.6153308
v -0.2234993 2.39673 0.0804171
v 0.0200998 1.902676 -0.3598845
v -0.246172 1.840353 -0.2612933
v 0.05756944 -0.9262815 0.03383496
v 0.001611404 -1.024736 -0.03117651
v 0.001875021 -1.085318 -0.02898887
v 0.1083403 -0.7212541 0.2587051
v -0.02419104 -1.053493 0.01553869
v 0.0928093 -0.7251501 -0.03755355
v 0.2608206 -0.4601758 0.2320743
v 0.2566155 -0.3025436 0.02117446
v 0.4087985 -0.2242644 0.3242384
v 0.2957031 -0.353574 0.4525971
v 0.51302 -0.04746771 0.2010377
v 0.5578502 -0.1049371 0.4374081
v 0.4791212 -0.1275105 0.558902
v 0.6492773 0.01377797 0.3573257
v 0.7993822 -0.04799402 0.5421993
vn 0.8688932 -0.01818989 0.4946653
vn -0.002453434 0.03169781 -0.9994945
vn -0.8646966 -0.01406947 0.5020975
vn -2.75027E-08 0.08640337 -0.9962602
vn 0.8676559 0.02098244 0.4967223
vn 0.8616895 -0.09994239 0.4974965
vn -0.866014 0.005151454 0.4999933
vn -0.06880664 0.1468639 -0.9867607
vn -0.06363092 0.1077091 -0.9921441
vn -0.8425483 -0.01344589 0.538453
vn 0.8903291 -0.07991767 0.4482491
vn 0.8906865 -0.07091011 0.4490539
vn -0.8361118 -0.08350357 0.5421663
vn -0.1525362 0.2702357 -0.9506342
vn -0.1144274 0.1573443 -0.9808921
vn 0.9103657 -0.1144164 0.3976722
vn -0.8252568 -0.1524446 0.543794
vn -0.209363 0.1631174 -0.9641368
vn -0.2766543 0.2866248 -0.9172288
vn 0.9150063 -0.1092396 0.3883687
vn 0.9160511 -0.03327423 0.3996791
vn -0.8372425 -0.1250929 0.5323315
vn -0.187325 0.03857962 -0.9815401
vn -0.1907433 0.1626998 -0.9680629
vn -0.7068377 -0.1672895 0.6873099
vn 0.9383733 -0.01562103 0.3452705
vn 0.941488 0.02679662 0.3359796
vn -0.732702 -0.06562116 0.6773785
vn -0.2078103 -0.1017468 -0.972863
vn -0.715047 -0.07052372 0.69551
vn 0.9580324 0.04042021 0.2837958
vn 0.9593438 0.07190906 0.2729261
vn -0.7270315 0.04134886 0.6853579
vn -0.2085472 -0.2978944 -0.9315401
vn -0.1361277 -0.1138536 -0.9841273
vn -0.7401692 0.04291222 0.67105
vn 0.9656656 0.07401698 0.2490211
vn 0.9627973 0.04617173 0.2662507
vn -0.7381317 0.2470882 0.6277811
vn -0.2579775 -0.4345298 -0.8629204
vn -0.1869179 -0.3082332 -0.9327669
vn 0.9733434 0.0453076 0.2248331
vn 0.9702426 0.02215721 0.2411192
vn -0.7137024 0.4038145 0.5723311
vn -0.325092 -0.6020634 -0.7292701
vn -0.2189757 -0.4653716 -0.8576007
vn -0.732598 0.4086452 0.544343
vn 0.9103853 -0.05261122 0.4104033
vn 0.9748762 0.03921079 0.2192693
vn -0.7021181 0.5171059 0.489522
vn -0.4844092 -0.6548691 -0.5800813
vn -0.4613337 -0.5017067 -0.7317524
vn -0.5169719 0.5096691 0.6877337
vn 0.9985273 -0.01962972 0.05057521
vn 0.9993981 0.03319388 -0.01008226
vn -0.5165569 0.647707 0.5600399
vn -0.3421587 -0.7824388 -0.5203048
vn -0.349335 -0.7436705 -0.570017
vn -0.6465001 0.6124041 0.4549714
vn 0.981369 0.1216568 0.14871
vn 0.001880944 -0.03645254 -0.9993336
vn -0.864699 0.01656468 0.5020172
vn -3.496911E-07 -1 1.238863E-07
vn 0.9710638 0.2359772 -0.03674092
vn -0.6045166 0.5030441 0.617662
vn -0.3502634 0.5768583 -0.7379363
vn 0.9719048 0.2324268 -0.03713435
vn -0.5261938 0.6091884 0.5933041
vn -0.4772014 -0.7978585 -0.3683757
vn -0.5103534 0.3601997 -0.780894
vn -0.7008381 0.3357696 -0.6293527
vn -0.3920126 0.6940433 -0.6038461
vn -0.5938816 0.6670992 -0.4497593
vn -0.4142061 0.8642087 -0.2856164
vn -0.4473732 0.4437586 -0.7764893
vn -0.07895964 0.6468473 -0.7585209
vn -0.0409919 0.4777387 -0.8775451
vn -0.1446489 0.2872846 -0.9468603
vn -0.3510904 0.3153569 -0.8816381
vn -0.4232574 0.2058971 -0.8823036
vn -0.7782543 -0.3420018 0.5266451
vn -0.6014016 0.1594249 0.7828792
vn -0.1399957 0.5190443 0.8432048
vn 0.3955203 0.6562585 0.6425641
vn 0.8347998 0.4618912 0.2996095
vn 0.9970173 0.008134308 -0.07674892
vn 0.8361372 -0.4677163 -0.2865591
vn 0.3842725 -0.8633978 -0.3269234
vn -0.1505669 -0.9792551 -0.1356061
vn -0.6079863 -0.7762251 0.1668154
vn -0.4826671 -0.5825917 0.6539263
vn -0.3254407 -0.1912872 0.9260117
vn 0.03541507 0.2358547 0.9711429
vn 0.552903 0.2636384 0.7904386
vn 0.8710598 0.08333299 0.4840562
vn 0.9534845 -0.1623039 0.2540174
vn 0.8139903 -0.5788276 0.0487699
vn 0.3886036 -0.9212617 0.01625568
vn -0.000434388 -0.989136 0.1470024
vn -0.347501 -0.8309833 0.4344075
vn -0.1907348 -0.6914508 0.6967899
vn -0.2928557 0.264542 -0.9188325
vn -0.1115857 0.412314 -0.9041824
vn -0.06696487 0.5629318 -0.8237861
vn -0.1256919 0.6701089 -0.7315434
vn -0.2710971 0.7380138 -0.6179338
vn -0.4322166 0.710397 -0.5554503
vn -0.560415 0.6052964 -0.5652888
vn -0.6327557 0.4293929 -0.6443927
vn -0.585321 0.2952023 -0.7551523
vn -0.3254879 0.5434068 -0.7738002
vn -0.744262 0.3293145 0.5810559
vn -0.2747931 0.7285835 0.6274193
vn 0.2996362 0.8495582 0.4341303
vn 0.759617 0.6460298 0.07501663
vn 0.9294459 0.1957452 -0.3127525
vn 0.7442608 -0.329313 -0.5810584
vn 0.2747935 -0.7285851 -0.6274173
vn -0.2996367 -0.8495591 -0.434128
vn -0.7596161 -0.6460309 -0.07501611
vn -0.9294481 -0.1957408 0.3127486
vn 0.5973303 0.7667871 0.2350191
vn 0.538115 -0.5870306 0.6048366
vn -0.3459979 -0.8410103 -0.4159175
vn -0.6938585 0.3359518 -0.6369434
vn 0.02671751 0.8520658 0.5227525
vn 0.4420236 -0.5054346 0.7410473
vn 0.1737801 -0.773497 -0.6095105
vn -0.4353038 0.311002 -0.84486
vn -0.3736031 0.6737708 0.6375372
vn 0.3860591 -0.507839 0.7701026
vn 0.5832679 -0.5136807 -0.6292304
vn -0.2299251 0.2800523 -0.9320436
vn -0.8363444 0.174265 0.5197691
vn 0.4085205 -0.3931622 0.8237321
vn 0.8975756 0.0171029 -0.4405289
vn -0.9246957 -0.26642 0.271953
vn 0.3419948 -0.4538484 0.8228374
vn 0.8660344 0.4935857 -0.07973465
vn -0.08311162 0.423358 -0.9021422
vn -0.7180781 -0.6852529 -0.1216241
vn 0.3130312 -0.4971886 0.8092064
vn 0.5796846 0.7399023 0.3413364
vn -0.04720878 0.7261171 -0.6859486
vn -0.1055678 -0.8290519 -0.5491161
vn 0.432666 -0.5078737 0.7448924
vn -0.1177974 0.7944874 0.5957463
vn 0.4740219 -0.6413541 -0.6032979
vn 0.3802852 -0.5128722 0.7696397
vn -0.6445404 0.4519929 0.6166604
vn -0.4785956 0.8063681 -0.3474433
vn 0.732344 -0.345836 -0.5865746
vn 0.350306 -0.5722607 0.7414874
vn -0.8905962 0.03813474 0.4531934
vn -0.5669349 0.7138899 -0.4110306
vn 0.9176239 0.3366938 -0.211196
vn 0.4182073 -0.6641486 0.6196849
vn -0.7998179 -0.5997522 -0.0242597
vn 0.6355934 -0.6593598 0.4015792
vn 0.5199512 -0.7010835 0.4879884
vn -0.8771748 0.3068971 -0.3692947
vn 0.2781947 -0.671846 0.6864625
vn 0.3390222 -0.8618377 0.3772263
vn -0.4151794 0.8360132 -0.3587589
vn 0.4014461 -0.7869906 0.4684943
vn 0.2972877 -0.6241304 0.7225519
vn -0.4131844 0.7577374 -0.5050869
vn 0.3397501 -0.6156889 0.7109833
vn -0.3427362 0.7666938 -0.5428745
vn 0.4700885 -0.446853 0.7611434
vn 0.4353262 -0.5923956 0.6779075
vn 0.2818645 -0.6461244 0.7092783
vn -0.4350983 0.339946 -0.8337423
vn 0.04922782 -0.7511848 0.6582538
vn 0.3013663 -0.5671985 0.7664622
vn -0.137976 0.3521705 -0.9257098
vn 0.1447786 -0.6736081 0.7247698
vn -0.1183569 -0.7910666 0.6001711
vn 0.4862504 -0.2721055 0.830373
vn 0.3803989 -0.3270536 0.8650622
vn -0.3026758 0.2024572 -0.9313424
vn 0.3435773 -0.4459323 0.8264982
vn 0.3597775 -0.2490385 0.8991885
vn 0.1893759 -0.1378947 0.9721738
vn -0.0253774 0.07833314 -0.9966043
vn 0.1732048 -0.3824168 0.907611
vn 0.2401912 -0.5177212 0.8211413
vn 0.0565286 0.6309972 -0.7737229
vn 0.3469004 -0.5661798 0.7477303
vn -0.01541928 0.4935993 -0.8695529
vn 0.3914559 -0.6319447 0.6688858
vn 0.3636354 -0.7815871 0.5068442
vn -0.5030147 0.8015895 -0.3231571
vn 0.3061133 -0.7659646 0.5653255
vn 0.5274192 -0.5625479 0.6366858
vn 0.320375 -0.4134703 0.8522924
vn 0.2355208 -0.4612419 0.8554448
vn -0.1089461 0.5258228 -0.8435882
vn 0.2151919 -0.4649372 0.8587933
vn -0.4985146 0.6946861 -0.5185505
vn -0.4607308 0.7789699 -0.4253623
vn -0.4981484 0.4727843 -0.7268584
vn -0.5506952 0.699378 -0.4556372
vn -0.5188797 0.5206897 -0.6779721
vn -0.4174858 0.4795509 -0.7718398
vn -0.4951225 0.6690387 -0.5542933
vn -0.4942405 0.6870459 -0.5326297
vn -0.3792414 0.4103884 -0.8293114
vn -0.6602976 0.2986145 -0.6890839
vn -0.5084971 0.2451729 -0.8254218
vn -0.3601565 0.4271065 -0.8293778
vn -0.562192 0.216122 -0.7982679
vn -0.57746 0.2252122 -0.7847417
vn -0.314947 0.0503288 -0.947774
vn -0.3611874 0.2168437 -0.9069303
vn -0.3869628 0.2134597 -0.8970479
vn -0.4795166 0.2963577 -0.8259758
vn -0.2949749 0.5183589 -0.8026792
vn -0.3529887 0.3623131 -0.8626287
vn -0.3570126 0.3477501 -0.8669556
vn -0.4130894 0.516205 -0.7502597
vn -0.2607629 0.576716 -0.7742102
vn -0.322112 0.6155177 -0.7192927
vn -0.1021701 0.4251708 -0.8993282
vn -0.3759044 0.2639742 -0.8882644
vn -0.2211919 0.7011796 -0.6778063
vn -0.2730042 0.7121857 -0.6467304
vn -0.1122799 0.6064523 -0.7871523
vn -0.3415051 0.594129 -0.7282754
vn -0.3936894 0.819019 -0.4173927
vn -0.533294 0.59953 -0.5967926
vn -0.4243767 0.6839517 -0.5933924
vn -0.115861 0.5500896 -0.8270294
vn -0.09466563 0.535372 -0.8392946
vn -0.1296242 0.6395702 -0.7577252
vn -0.1942177 0.8413156 -0.5044479
vn -0.360296 0.8593061 -0.3630151
vn -0.4441095 0.8564423 -0.2631983
vn -0.4932095 0.7954186 -0.3522125
vn -0.5296755 0.8153864 -0.2336427
vn -0.8782479 0.1935118 -0.4373029
vn -0.7612743 0.2036984 -0.6156042
vn -0.3835235 0.76394 -0.5189466
vn -0.4011442 0.8461341 -0.3509139
vn -0.2280839 0.8667817 -0.4434718
vn -0.4569781 0.7795313 -0.4283714
vn -0.4536308 0.7819918 -0.4274434
vn -0.4105401 0.3232808 -0.8526115
vn -0.5019548 0.6652713 -0.5526804
vn -0.4941269 0.6780562 -0.5441309
vn -0.1867994 0.3517646 -0.9172609
vn -0.1600522 0.3584951 -0.919709
vn -0.5145395 0.672308 -0.5322133
vn -0.07959257 0.555817 -0.8274857
vn 0.2533233 -0.6632741 0.704198
vn 0.2788243 -0.8015691 0.5289083
vn 0.3738031 -0.7650521 0.5243726
vn -0.3862646 0.7615538 -0.5204186
vn -0.662688 0.3003825 -0.6860138
vn -0.2138103 0.2200638 -0.9517653
vn -0.1694114 0.2812774 -0.9445544
vn -0.5787696 0.220092 -0.7852294
vn -0.009202456 0.08783643 -0.9960924
vn -0.01059847 0.3740375 -0.927353
vn 0.05323467 0.667652 -0.7425678
vn -0.3255641 0.5315109 -0.7819874
vn -0.0892372 0.5034525 -0.8594024
vn -0.1578907 0.3013683 -0.9403445
vn -0.2623438 0.7136764 -0.6494936
vn -0.218049 0.7564684 -0.616612
vn -0.3813451 0.8251496 -0.4167783
vn -0.4773177 0.8195139 -0.3171198
vn 0.4903741 -0.6265827 0.6057453
vn 0.6054312 -0.608792 0.512665
vn 0.6085818 -0.6630091 0.435944
vn -0.4936142 0.8233984 -0.279929
vn 0.3232378 -0.8596016 0.3957302
vn 0.3475578 -0.8165317 0.4609551
vn 0.3235794 -0.5397495 0.7771531
vn 0.3047182 -0.644994 0.7008064
vn 0.356379 -0.5579586 0.7494507
vn 0.4203626 -0.7438151 0.5196483
vn 0.4047101 -0.7651688 0.500726
vn 0.471128 -0.6849656 0.5557524
vn 0.5192702 -0.1945213 0.8321779
vn -0.3966242 0.4162806 -0.8181685
vn 0.1273938 -0.414841 0.9009317
vn 0.4892215 -0.5797436 0.6515825
vn 0.3729658 -0.6340266 0.6774268
vn 0.376896 -0.5047223 0.7766626
vn 0.4737177 -0.3704535 0.7989718
vn 0.3921694 -0.3988363 0.8289347
vn 0.2926451 -0.5529717 0.7801162
vn 0.3358747 -0.3646036 0.868477
vn 0.2255194 -0.4865934 0.8440189
vn -0.6797979 0.3809876 -0.6266764
vn -0.2325841 0.2106153 -0.9494977
vn 0.3809482 -0.5026793 0.7760103
vn -0.1037114 -0.3420191 0.9339523
vn 0.2083528 -0.1027404 0.9726425
vn 0.5801237 -0.03221561 0.813891
vn 0.8232191 -0.172006 0.5410399
vn 0.8495302 -0.2837493 0.4447302
vn 0.7411327 -0.606248 0.2884193
vn 0.4792503 -0.8408246 0.2516607
vn 0.1255525 -0.9194956 0.3725109
vn -0.1420753 -0.8010779 0.5814542
vn -0.3370537 -0.19542 0.920981
vn 0.9042498 0.09274671 0.4168098
vn 0.4429741 -0.8952597 0.04779166
vn 0.856179 0.4207303 0.299906
vn 0.8408648 -0.4643906 -0.278007
vn 0.8630086 -0.5051419 0.00692156
vn -0.1659878 0.5232088 0.8358831
vn 0.35501 0.6159913 0.7032231
vn 0.4248902 0.3637136 0.8289636
vn -0.6307581 0.1527631 0.7607941
vn -0.6038231 -0.7667356 0.2179779
vn -0.4708169 -0.5719216 0.6717418
vn -0.3628343 -0.8225351 0.4379352
vn -0.1397487 -0.9750802 -0.1723052
vn 0.9970957 -0.03972796 -0.06497555
vn 0.9659175 -0.1971723 0.1677094
vn 0.353855 -0.8679069 -0.3486034
vn 0.9455186 0.1568638 -0.2852866
vn 0.7656441 -0.3385842 -0.5469459
vn -0.4230156 0.2055051 -0.8825108
vn -0.2067475 0.2269405 -0.9517109
vn -0.09593604 0.4144001 -0.9050243
vn -0.1245234 0.6747234 -0.7274904
vn -0.2475733 0.7082701 -0.661106
vn -0.3777455 0.7081072 -0.5965674
vn -0.5258595 0.6250671 -0.576856
vn -0.6075916 0.4674919 -0.6420934
vn -0.1412187 0.8433362 -0.5184993
vn 0.2767134 -0.8011705 0.530618
vn -0.1349251 0.832158 -0.5378739
vn 0.005301347 -0.9906954 0.1359945
vn -0.7392895 -0.4196766 0.5266144
vn 0.7722259 -0.01957174 -0.6350465
vn -0.8602449 0.4763165 -0.1819382
vn -0.8694592 -0.0216051 -0.4935322
vn 0.9135821 -0.2684755 -0.3054321
vn -0.9553584 0.2918077 0.04624617
vn 0.8534225 -0.4091885 -0.3228542
vn 0.9127841 -0.3182219 -0.256047
vn -0.9335507 0.3557022 0.04426274
vn 0.8490331 -0.471566 0.2382609
vn -0.9094203 0.3953152 0.1291541
vn 0.7225023 -0.6277638 -0.2896604
vn 0.7621086 -0.6067333 -0.2259764
vn -0.7469553 0.6489951 0.1444408
vn 0.8634981 -0.4938966 0.102163
vn 0.7684179 -0.6390853 0.03322542
vn -0.7891091 0.6111223 0.06194
vn 0.4152277 -0.706436 -0.573179
vn 0.6513132 -0.6996881 -0.2936456
vn -0.532135 0.8355858 0.1364872
vn 0.5244606 -0.8309914 0.1854575
vn 0.239666 -0.970533 -0.02501806
vn -0.1932733 0.8726363 0.4484991
vn 0.7749452 -0.5442768 0.3212828
vn 0.5761611 -0.4668023 0.6709204
vn 0.8116562 -0.5658191 0.1451313
vn 0.8952461 -0.2799039 -0.3466818
vt -0.1502573 -0.07758962
vt -0.153512 -0.0724754
vt -0.1828763 -0.09011198
vt -0.1802691 -0.09558474
vt 0.148863 -0.08007147
vt 0.1462044 -0.08551957
vt 0.1776411 -0.1009533
vt 0.1795886 -0.09521249
vt -0.03347567 -0.1676256
vt -0.0391074 -0.1653821
vt -0.05113295 -0.1982442
vt -0.04551151 -0.2005134
vt 0.1485134 -0.08351903
vt 0.1510797 -0.07802685
vt 0.1327527 -0.0684152
vt -0.1818997 -0.09062739
vt -0.1843669 -0.08509003
vt -0.2100262 -0.1015658
vt -0.2069005 -0.10676
vt -0.1508128 -0.07966863
vt -0.1473377 -0.08463584
vt -0.130081 -0.0738471
vt -0.03606142 -0.1660276
vt -0.03038962 -0.1681679
vt -0.03105983 -0.1463001
vt 0.1337755 -0.07005629
vt 0.1354347 -0.06422559
vt 0.1143579 -0.055392
vt 0.1343537 -0.06575514
vt 0.1326247 -0.07156552
vt 0.1503455 -0.0806141
vt -0.0461873 -0.1645643
vt -0.03957393 -0.1457983
vt -0.04480239 -0.1427301
vt -0.1293023 -0.07508184
vt -0.1325495 -0.06996273
vt -0.1499665 -0.08113921
vt -0.1328934 -0.06919137
vt -0.1296748 -0.07432859
vt -0.1100977 -0.06402586
vt -0.05610501 -0.1384637
vt -0.05114263 -0.1419457
vt -0.0426841 -0.1219744
vt -0.04737617 -0.1181359
vt 0.1160989 -0.05628605
vt 0.116322 -0.05022797
vt 0.09054698 -0.04096013
vt 0.114944 -0.05425929
vt 0.1145111 -0.06030599
vt 0.1344848 -0.06875907
vt -0.1097991 -0.0641435
vt -0.1069384 -0.06948822
vt -0.08166961 -0.05806507
vt -0.05920904 -0.111734
vt -0.05495563 -0.1160534
vt -0.04502442 -0.09151831
vt -0.04813036 -0.08631232
vt 0.090881 -0.04917051
vt 0.09017333 -0.04314978
vt 0.04424771 -0.02714493
vt 0.09039822 -0.04089854
vt 0.0912634 -0.04689867
vt 0.1161756 -0.05584212
vt -0.08156075 -0.05821303
vt -0.08472802 -0.05304404
vt -0.1096787 -0.06434487
vt -0.08715202 -0.04822044
vt -0.08426847 -0.0535529
vt -0.03864687 -0.03134344
vt -0.04204995 -0.08986001
vt -0.03856699 -0.09482176
vt -0.02012043 -0.04410318
vt 0.04070608 -0.03349605
vt 0.04322804 -0.02798343
vt 0.01640377 -0.01746509
vt 0.01285265 -0.02237822
vt 0.04420213 -0.02722009
vt 0.04179522 -0.03278397
vt 0.0908001 -0.0493203
vt -0.06922747 -0.07531375
vt -0.03065992 -0.04085403
vt -0.03303714 -0.0352774
vt -0.03825142 -0.03153379
vt -0.04289532 -0.0276371
vt -0.08643554 -0.0493066
vt -0.04334235 -0.02608631
vt -0.03880882 -0.03011087
vt -0.01387229 -0.01455845
vt -0.02786215 -0.04093039
vt -0.02459896 -0.04603937
vt -0.007618544 -0.01962538
vt 0.01158941 -0.02188786
vt 0.01520906 -0.01702493
vt -0.01238579 -0.004676539
vt -0.02600056 -0.04528674
vt -0.00450684 -0.02437166
vt -0.00809883 -0.01948826
vt -0.01379869 -0.01424885
vt -0.01879327 -0.01081312
vt -0.04300123 -0.02643848
vt -0.018786 -0.0100573
vt -0.01386886 -0.01360297
vt 0.01010124 0.006849048
vt -0.006222313 -0.021051
vt -0.002029408 -0.0254293
vt 0.01585469 0.001431362
vt -0.01860065 -0.007663666
vt -0.01396414 -0.00375819
vt -0.0279552 0.00481853
vt -0.01281144 -0.005177975
vt -0.01741808 -0.00911864
vt 0.01108498 -0.0224985
vt -0.001575263 -0.0253882
vt 0.01996627 -0.00242284
vt 0.01569017 0.001874252
vt 0.009830503 0.007274444
vt 0.004208907 0.009543288
vt -0.01879271 -0.01007518
vt 0.003916842 0.009207856
vt 0.009570802 0.007020909
vt 0.01928181 0.02123412
vt 0.01405099 0.002874316
vt 0.01897224 -0.0006656378
vt 0.02996154 0.01255138
vt 0.02505504 0.01611176
vt -0.03374779 0.002048132
vt -0.02863883 0.005311347
vt -0.03781792 0.01227716
vt -0.02810298 0.004701212
vt -0.03323296 0.001471148
vt -0.01874508 -0.007778481
vt 0.01822771 0.02227317
vt 0.01228339 0.02346279
vt 0.003260738 0.009755062
vt 0.01196817 0.02321168
vt 0.01792314 0.02207666
vt 0.02235763 0.03361237
vt 0.01630178 0.03388866
vt 0.02251457 0.01634281
vt 0.02770154 0.01320508
vt 0.03050333 0.0257724
vt -0.04365839 0.008282517
vt -0.03828313 0.01108546
vt -0.04983789 0.01955329
vt -0.03805551 0.01197561
vt -0.04349109 0.009291505
vt -0.03392169 0.001772157
vt 0.02684047 0.01401812
vt 0.03448535 0.02348753
vt 0.02931576 0.0266538
vt -0.1096522 -0.0645783
vt -0.1122742 -0.05911247
vt -0.132405 -0.06992973
vt 0.0162514 0.0342756
vt 0.02230756 0.03400592
vt 0.02486448 0.04817508
vt 0.02702156 0.02594858
vt 0.03232568 0.02301323
vt 0.03695771 0.03636856
vt -0.05378952 0.01322224
vt -0.04988533 0.01785983
vt -0.06167341 0.02734659
vt -0.04871361 0.02229425
vt -0.05298168 0.01798919
vt -0.04317621 0.01069452
vt 0.03928438 0.01625153
vt 0.04895676 0.02372178
vt 0.04571111 0.02884191
vt 0.01157962 0.05318383
vt 0.00562578 0.0520429
vt 0.006234205 0.03773044
vt 0.004108089 0.05293078
vt 0.01003033 0.05422574
vt 0.006283747 0.06983446
vt 0.04095208 0.02971578
vt 0.04452337 0.02481723
vt 0.05474914 0.03792004
vt -0.06435464 0.01592627
vt -0.06169725 0.02137497
vt -0.07530699 0.01942081
vt -0.06200106 0.02364153
vt -0.06481452 0.01827175
vt -0.05307215 0.01015347
vt 0.03954867 0.02973092
vt 0.05132866 0.0377945
vt 0.04901021 0.04339581
vt 0.02751618 0.06444816
vt 0.02147067 0.06399882
vt 0.02054541 0.04889579
vt 0.1757752 -0.09796901
vt 0.1737135 -0.1036698
vt 0.2001998 -0.1171636
vt 0.2029669 -0.1117698
vt -0.04113807 -0.2013359
vt -0.04680694 -0.199188
vt -0.05814029 -0.226699
vt -0.05246136 -0.2288203
vt -0.02502758 -0.001429441
vt -0.02895226 0.003190829
vt -0.03099119 -0.002518178
vt 0.01872482 0.06509678
vt 0.02474601 0.06580053
vt 0.01696844 0.07821129
vt 0.05684279 0.03955087
vt 0.05860203 0.03374958
vt 0.06953885 0.03729243
vt -0.01902913 0.01301676
vt -0.01375067 0.01934736
vt -0.02169922 0.01924745
vt 0.02420663 0.06601825
vt 0.02426859 0.07807808
vt 0.01632452 0.07836287
vt 0.06876256 0.03584522
vt 0.06723782 0.04245023
vt 0.05604269 0.03796553
vt -0.06140286 0.01569556
vt -0.07328007 0.02152712
vt -0.07496914 0.01345956
vt -0.03070916 0.0174109
vt -0.03938864 -0.007224383
vt -0.03037552 -0.02036382
vt -0.03148494 0.0414741
vt -0.05435153 0.0228738
vt -0.04549301 0.01706109
vt -0.01468488 0.008510431
vt -0.03918687 0.01062824
vt -0.04023742 -0.001570179
vt -0.0048779 0.0441425
vt -0.02006657 0.05959589
vt -0.02373886 0.05264754
vt 0.02525553 0.0352363
vt 0.01618458 0.06280383
vt 0.009125248 0.05259857
vt -0.02918453 0.04653587
vt -0.01869378 0.05978698
vt -0.02772037 0.07110021
vt -0.007281073 0.002003674
vt 0.01058638 0.009171253
vt 0.01922648 0.02823591
vt -0.02158757 -0.005065867
vt -0.001275202 -0.008978362
vt 0.009679985 0.0001836929
vt -0.03685495 0.001035039
vt -0.02668771 -0.01173024
vt -0.004521986 -0.01485388
vt -0.03217366 0.008203063
vt -0.03055692 -0.01046485
vt -0.01654676 -0.02189611
vt -0.03906466 0.01841028
vt -0.0332103 0.02840942
vt -0.04172945 0.03134832
vt 0.08238938 -0.03971169
vt 0.08955523 -0.03051955
vt 0.07981336 -0.02432911
vt 0.09606723 0.013914
vt 0.09707047 0.02552601
vt 0.08471607 0.01600609
vt 0.09747417 0.02397705
vt 0.09632485 0.03557549
vt 0.08477876 0.02293232
vt 0.09696072 0.0300874
vt 0.09336398 0.0411738
vt 0.0827773 0.03657512
vt 0.08506607 0.05704039
vt 0.07692631 0.06538244
vt 0.07606967 0.04980918
vt -0.01557337 0.1007171
vt -0.02611644 0.09573852
vt -0.01253189 0.0918908
vt -0.06671394 0.07139885
vt -0.07165088 0.06095037
vt -0.06128281 0.05677825
vt -0.0800349 0.04038932
vt -0.08205535 0.02891051
vt -0.0718801 0.0284651
vt -0.08300612 0.00674897
vt -0.08249924 -0.004895255
vt -0.07283415 0.006234102
vt -0.07826886 -0.03450101
vt -0.07444684 -0.04551179
vt -0.06873648 -0.0325665
vt 0.03401731 -0.05871933
vt 0.02916023 -0.04881896
vt 0.02518173 -0.05049242
vt 0.07221909 -0.01652261
vt 0.07542857 -0.008808294
vt 0.06339459 -0.009909249
vt 0.08257233 0.01792349
vt 0.08304342 0.02735247
vt 0.07314167 0.02605905
vt 0.07330654 0.02104457
vt 0.07316955 0.05096124
vt 0.06542536 0.04512022
vt 0.06731164 0.039942
vt 0.05195642 0.07176762
vt 0.0438986 0.07786168
vt 0.04088257 0.06740575
vt 0.00942016 0.08715356
vt 0.004767174 0.07495372
vt 0.009607838 0.07627295
vt -0.04125063 0.06007998
vt -0.03264378 0.05684657
vt -0.0296845 0.06089811
vt -0.05440422 0.03124714
vt -0.05685272 0.02266146
vt -0.04592489 0.02265705
vt -0.05456482 -0.01294343
vt -0.04424744 -0.007932111
vt -0.04535338 -0.003038306
vt -0.03166913 -0.048194
vt -0.01891602 -0.0444035
vt -0.02267308 -0.04107834
vt 0.01337708 -0.03458013
vt 0.01753577 -0.03342506
vt 0.01501754 -0.02489941
vt -0.03341291 0.01470993
vt -0.03416415 0.0263447
vt -0.04211456 0.02379708
vt -0.02653733 0.004208797
vt -0.03381436 0.01375811
vt -0.03820481 0.006395841
vt -0.0184334 0.003335515
vt -0.02982876 0.005783084
vt -0.02833503 -0.002821668
vt -0.02232099 -0.004304224
vt -0.01440576 0.008064022
vt -0.02484773 0.002396655
vt -0.01793758 -0.003036377
vt -0.009965934 0.01647547
vt -0.01513125 0.006027271
vt -0.005620368 0.00586804
vt -0.01124324 0.02448219
vt -0.009476032 0.01296173
vt -0.0008535084 0.0182403
vt -0.01671622 0.02887913
vt -0.008434284 0.02090706
vt -0.003890628 0.02956465
vt -0.02622551 0.03190668
vt -0.01507164 0.02907853
vt -0.01577217 0.03931811
vt -0.03296032 0.02678601
vt -0.02236921 0.0316514
vt -0.02824925 0.03943409
vt -0.03394584 0.03700207
vt -0.01447411 0.006156041
vt -0.0113163 0.01148475
vt -0.01189374 0.01765184
vt -0.01598582 0.02230174
vt -0.02202952 0.02365833
vt -0.02771635 0.02120345
vt -0.03087414 0.01587474
vt -0.03029672 0.009707648
vt -0.02620463 0.005057744
vt -0.02016095 0.003701168
vt 0.08788955 0.05162368
vt 0.08385158 0.05083362
vt 0.0860896 0.03939525
vt 0.09012756 0.0401853
vt 0.09145895 0.03942442
vt 0.0873869 0.03883449
vt 0.08905805 0.02729968
vt 0.09313007 0.02788962
vt 0.09319616 0.02587795
vt 0.08913658 0.02520775
vt 0.09103496 0.01370814
vt 0.09509458 0.01437832
vt 0.09316804 0.02481412
vt 0.08927847 0.02347226
vt 0.09307957 0.01245422
vt 0.09696914 0.01379611
vt -0.06620979 0.07237489
vt -0.0560084 0.07935389
vt -0.05932955 0.08178274
vt -0.09012775 0.04018505
vt -0.08608978 0.03939502
vt -0.08788978 0.05162342
vt -0.0931302 0.02788966
vt -0.08905818 0.02729973
vt -0.08738706 0.03883457
vt -0.09145908 0.03942449
vt -0.09509472 0.01437818
vt -0.09103513 0.01370803
vt -0.08913673 0.02520764
vt -0.09319631 0.02587782
vt -0.0969692 0.01379588
vt -0.09307963 0.01245402
vt -0.08927856 0.02347204
vt -0.09316815 0.02481389
vt 0.05932831 0.08178379
vt 0.05600721 0.0793549
vt 0.06288758 0.06994718
vt 0.06620869 0.07237608
vt 0.1031283 -0.001367496
vt 0.09911531 -0.00227595
vt 0.09838972 -0.03551738
vt 0.02191166 0.0257748
vt 0.01392349 0.01728749
vt 0.0473156 0.004323496
vt -0.09763537 0.001120883
vt -0.1018964 0.002423947
vt -0.09694727 -0.02528395
vt -0.04603509 0.01620279
vt -0.05490239 0.0220021
vt -0.06298071 0.005760353
vt 0.09927414 0.008483487
vt 0.09496592 0.007346055
vt 0.09484209 -0.02798664
vt 0.02986329 0.008716517
vt 0.01843215 0.006441914
vt 0.01824375 -0.03078736
vt -0.09533136 0.01268883
vt -0.09940393 0.0132749
vt -0.09772433 -0.02446394
vt -0.03887005 -0.02625564
vt -0.04789817 -0.0131265
vt -0.04909794 -0.02639978
vt 0.09869686 0.01809068
vt 0.09462655 0.01748915
vt 0.09910335 -0.01655589
vt 0.02085977 0.000930753
vt 0.01026066 0.005778781
vt -0.005627389 -0.02379275
vt -0.09365736 0.0231593
vt -0.09771798 0.02382306
vt -0.09831287 -0.01008573
vt -0.0249741 -0.03135829
vt -0.03882674 -0.01973665
vt -0.0339893 -0.03894743
vt 0.09516108 0.03310409
vt 0.09116235 0.03213487
vt 0.09322872 -0.005024705
vt 0.02134733 0.01088255
vt 0.01549705 0.02096321
vt -0.0164404 0.00623697
vt -0.08880179 0.03748215
vt -0.0924028 0.03873288
vt -0.09440662 0.002762571
vt 0.06068725 0.079504
vt 0.05830953 0.07652439
vt 0.07702962 0.05563275
vt 0.0122028 0.01306849
vt 0.01339544 0.02466256
vt -0.01719943 0.03003659
vt 0.07624968 0.05860064
vt 0.07950844 0.06111256
vt 0.05511628 0.08136696
vt 0.005051439 0.005758789
vt -0.006092094 -0.003173235
vt 0.01208672 -0.003754923
vt -0.09383619 0.03625279
vt -0.08989299 0.03507789
vt -0.07844915 0.06886822
vt 0.01002015 0.02077762
vt 0.01783793 0.02942211
vt -0.009647653 0.0544791
vt 0.09045275 0.04209502
vt 0.09394186 0.04354218
vt 0.07703888 0.07678477
vt 0.02873085 0.02491309
vt 0.02112026 0.005414592
vt 0.03671353 0.0172774
vt -0.09463895 0.04484989
vt -0.0910156 0.04378243
vt -0.08757809 0.08309632
vt 0.01163846 0.04055669
vt 0.02306931 0.0428329
vt 0.0006094478 0.0784481
vt 0.09018116 0.04826568
vt 0.09377275 0.04923315
vt 0.09260224 0.07381321
vt -0.09080184 0.05853715
vt -0.08722409 0.05751972
vt -0.08206304 0.09141184
vt 0.02488841 0.03771571
vt 0.03548558 0.03286342
vt 0.03596216 0.07016081
vt 0.08704463 0.06117097
vt 0.09109941 0.06186955
vt 0.07936122 0.08245716
vt 0.000695963 0.05868179
vt 0.007819413 0.0688424
vt -0.0009193886 0.07983959
vt -0.08967576 0.06478403
vt -0.08563502 0.06400832
vt -0.07933103 0.0891472
vt 0.03009727 0.0284207
vt 0.03572579 0.01821457
vt 0.04742108 0.04769734
vt 0.07794155 0.07265066
vt 0.08186601 0.07388672
vt 0.07144438 0.0917602
vt -0.0175208 0.04954011
vt -0.01382016 0.0564734
vt -0.02851481 0.07082144
vt 0.02426584 0.1056294
vt 0.02493454 0.1015696
vt 0.04915065 0.1004469
vt 0.02036083 0.0232314
vt 0.01869448 0.0116959
vt 0.0446024 0.02306825
vt -0.1016506 0.006239173
vt -0.1054455 0.007828979
vt -0.1101992 -0.01922565
vt 0.02583078 0.01663463
vt 0.01858992 -0.006675242
vt 0.03465372 0.005228964
vt 0.02338157 -0.02159119
vt 0.03139723 -0.02535576
vt 0.04170553 -0.01813605
vt -0.04654504 0.02702568
vt -0.04400591 0.03543534
vt -0.05399697 0.02736014
vt 0.05982116 -0.04105474
vt 0.04969482 -0.04852752
vt 0.05714827 -0.04822857
vt 0.02380009 -0.01094587
vt 0.03382527 -0.009431351
vt 0.03380917 -0.002356058
vt -0.03411853 0.0001828608
vt -0.02575788 0.007864132
vt -0.03857688 0.005252699
vt 0.05016863 0.009951087
vt 0.04748627 0.00506769
vt 0.05202767 0.003145921
vt 0.04951701 0.02044845
vt 0.06850371 0.03697146
vt 0.05335312 0.04952557
vt -0.0422492 0.04623659
vt -0.03395536 0.05145725
vt -0.04469455 0.05499941
vt 0.06786163 0.04141578
vt 0.06995057 0.05027034
vt 0.0611789 0.05770195
vt -0.04738743 0.04644698
vt -0.03666311 0.04286004
vt -0.04466889 0.05243051
vt 0.07312928 0.07421817
vt 0.08201151 0.06691905
vt 0.07904439 0.07278329
vt 0.0276131 -0.02814291
vt 0.00782712 -0.03317172
vt 0.02723026 -0.03949397
vt 0.02724654 -0.05493819
vt 0.01100492 -0.05896418
vt 0.02294281 -0.06312131
vt -0.03960862 -0.03732646
vt -0.04635454 -0.02727164
vt -0.04649636 -0.0423597
vt 0.01297517 -0.08367327
vt 0.001194002 -0.07909081
vt 0.00751451 -0.08482017
vt 0.009650147 -0.04183874
vt -0.00900826 -0.03299557
vt -0.01096243 -0.04169882
vt 0.004150901 -0.04886178
vt -0.03024096 -0.04913183
vt -0.02568037 -0.06000926
vt -0.0217872 -0.05564221
vt -0.004938052 -0.06423707
vt -0.01985091 -0.05666559
vt -0.01882128 -0.06220215
vt -0.01001539 -0.06667305
vt -0.02815703 -0.0845788
vt -0.03651334 -0.07931526
vt -0.03400747 -0.0846019
vt -0.0003291199 -0.0007804403
vt -0.00840777 0.01707222
vt -0.01296487 0.01354466
vt -0.009248535 -0.01367717
vt -0.0132569 0.001869298
vt -0.01647373 -0.002630765
vt 0.001393774 -0.005943353
vt -0.01495689 -0.002243025
vt 0.0002016947 -0.01353174
vt -0.01965552 -0.02007312
vt -0.02674149 -0.008936903
vt -0.02581741 -0.01656257
vt 0.001564887 0.03743235
vt -0.008235987 0.03721341
vt 0.003519958 0.01689679
vt 0.008392874 0.02551786
vt -0.0008475937 0.01800718
vt 0.004744512 0.006052588
vt -0.01100337 0.005715019
vt -0.02414515 0.004454224
vt -0.01092379 -0.0004225614
vt -0.01806886 -0.003456248
vt -0.02295041 0.008805662
vt -0.02372038 0.002716049
vt -0.02092164 0.03007291
vt -0.009233555 0.04690288
vt -0.01770564 0.0497379
vt 0.02354067 0.01671128
vt 0.0224161 0.005385784
vt 0.02934971 0.01623588
vt -0.02626714 0.05946848
vt -0.03208169 0.05906612
vt -0.0361441 0.04607709
vt 0.01462879 0.0259531
vt 0.006765348 0.01575674
vt 0.01962117 0.02104171
vt -0.04498427 0.04986934
vt -0.04070326 0.06278796
vt -0.04615225 0.05838863
vt 0.0016343 0.06408968
vt 0.0219512 0.06186381
vt 0.007962493 0.07332987
vt -0.006630746 0.07859489
vt 0.0007211294 0.08279548
vt -0.008156134 0.08659908
vt 0.01322058 0.06682514
vt 0.02877254 0.06344793
vt 0.01938962 0.0700769
vt 0.03491829 0.095465
vt 0.04443184 0.08902489
vt 0.04148313 0.0947153
vt 0.03611371 0.05987604
vt 0.03279377 0.07683022
vt 0.01458261 0.07002118
vt 0.01297796 0.06015261
vt 0.0266902 0.07317716
vt 0.01468281 0.07122345
vt -0.02394448 0.05747563
vt -0.01907787 0.04616772
vt -0.01682585 0.05957529
vt 0.01497606 0.0690401
vt 0.02698163 0.07100498
vt 0.01983815 0.07301849
vt 0.002324247 -0.02769569
vt -0.003094264 -0.04177668
vt 0.002393811 -0.04278427
vt 0.01613083 -0.01840669
vt 0.004586976 -0.02654336
vt 0.01531532 -0.03170911
vt -0.0190806 0.01337827
vt -0.03024365 0.01616994
vt -0.02782666 -0.01123346
vt 0.006568119 0.01936554
vt -0.002740172 -0.01617414
vt 0.00881418 -0.008052391
vt -0.01201852 0.01460038
vt -0.004217009 -0.01915887
vt 0.0006224225 0.000843269
vt -0.0120401 0.009729539
vt -0.02264798 0.004900774
vt -0.01005818 -0.008903141
vt 0.01953717 -0.003698388
vt 0.01473171 -0.02370872
vt 0.02577085 -0.02250254
vt 0.02855104 -0.02265721
vt 0.02838875 -0.03297166
vt 0.0342392 -0.03298979
vt -0.01565598 0.01788682
vt -0.02141628 0.007833198
vt -0.004923648 0.005592837
vt -0.01699644 0.03959121
vt 0.01296217 0.01592645
vt -0.000510239 0.037304
vt -0.00147332 0.01591099
vt 0.007534514 0.001177019
vt 0.01371258 0.004659034
vt -0.01581227 0.02716086
vt -0.01474758 0.01555059
vt 0.004566457 0.02361015
vt -0.02550029 0.04119964
vt 0.003110092 0.03691532
vt -0.006193978 0.04927769
vt -0.004480187 0.05047648
vt 0.004790199 0.03808883
vt 0.0136998 0.04993263
vt -0.01465305 0.031503
vt -0.007270095 0.0209612
vt -0.001344126 0.0268705
vt -0.008403772 0.05965898
vt 0.003094675 0.05590362
vt 0.004678508 0.06435548
vt -0.007615684 0.06214693
vt -0.00276005 0.05262424
vt 0.003884299 0.05839629
vt -0.01252832 0.05768258
vt 0.008917758 0.05858676
vt 0.004060155 0.06810845
vt -0.01636891 0.02735804
vt -0.008579179 0.01822214
vt 0.001718816 0.03395002
vt -0.02264298 0.02845319
vt 0.009485822 0.04483206
vt -0.01196001 0.04392216
vt -0.03125798 0.03851367
vt -0.01919836 0.07548948
vt -0.03193127 0.05405216
vt -0.0230018 0.04138106
vt -0.01155995 0.03916094
vt -0.01257302 0.05468098
vt -0.0329342 0.01917449
vt -0.02233895 0.02454985
vt -0.03894217 0.04756736
vt -0.01518427 0.02982837
vt -0.02700084 0.06172635
vt -0.03218977 0.0525503
vt -0.02974659 0.04977025
vt -0.02212713 0.05894738
vt -0.02687682 0.06305931
vt -0.03852978 0.0584479
vt -0.02565791 0.07980206
vt -0.03472948 0.08197375
vt -0.03270166 0.0511415
vt -0.03149489 0.06193922
vt -0.03805497 0.06114899
vt -0.0212868 0.04508751
vt -0.0163569 0.05440529
vt -0.02948822 0.0564911
vt -0.03387598 0.00335636
vt -0.05109157 0.0234611
vt -0.05432203 0.009190738
vt -0.03313769 0.01660667
vt -0.02755279 0.02683673
vt -0.04810884 0.0322709
vt 0.009217345 0.008954018
vt -0.01711763 -0.01329767
vt -0.005425664 -0.0172162
vt -0.01144973 0.01778099
vt -0.0197392 0.02574523
vt -0.03483001 -0.0001693518
vt -0.01436389 0.01227431
vt -0.01607361 0.02380345
vt -0.0388667 0.01438249
vt -0.06095963 0.01253574
vt -0.05731828 0.02670683
vt -0.07438753 0.0280757
vt -0.07643466 0.02712146
vt -0.06876282 0.03480227
vt -0.07704455 0.03893423
vt -0.06362908 0.02413495
vt -0.06493775 0.03589083
vt -0.07082115 0.03433105
vt -0.02069848 -0.01343391
vt -0.04403642 -0.009728238
vt -0.0385085 -0.0190144
vt -0.02436598 0.0009817656
vt -0.03545878 0.005189706
vt -0.03718052 -0.001651489
vt 0.001923309 -0.02493258
vt -0.01207404 -0.02497525
vt -0.008855634 -0.03192147
vt -0.001237609 -0.004769833
vt -0.01294209 -0.0008888756
vt -0.01030108 -0.02048312
vt 0.001890125 -0.01405692
vt -0.009740872 -0.005760564
vt -0.01210723 -0.01409952
vt -0.05851721 0.0345095
vt -0.060395 0.02592793
vt -0.05273771 0.03037638
vt -0.07035924 0.01515826
vt -0.06433799 0.01138604
vt -0.05369905 0.02605028
vt -0.0453028 0.003540375
vt -0.0438682 -0.005692852
vt -0.0274074 0.008840689
vt -0.03261645 -0.001499674
vt -0.02258876 -0.002997527
vt -0.02426761 0.006194427
vt -0.03096222 -0.01540584
vt -0.03669343 -0.006243748
vt -0.04199547 -0.01104415
vt 0.004370723 -0.02698475
vt 0.005042983 -0.03832236
vt 0.0150983 -0.0321521
vt 0.01532832 -0.03251553
vt 0.005274036 -0.03868747
vt 0.01000342 -0.04663219
vt -0.04906075 -0.0290119
vt -0.0423259 -0.03907414
vt -0.03883287 -0.02886763
vt 0.01464584 -0.02292812
vt 0.02035204 -0.02978407
vt 0.02568502 -0.02172222
vt 0.02711084 -0.02264799
vt 0.0217812 -0.03071205
vt 0.0269435 -0.03296237
vt -0.02844568 -0.04519758
vt -0.01820864 -0.04630776
vt -0.01953423 -0.03748687
vt -0.02026942 -0.05409034
vt -0.01851717 -0.04873841
vt -0.02875322 -0.04761916
vt -0.0414772 0.06410271
vt -0.0497963 0.05892238
vt -0.03042567 0.04285119
vt -0.0575868 0.02305852
vt -0.06705182 0.03219923
vt -0.07465424 0.02444971
vt 0.02636118 -0.005174491
vt 0.05137835 -0.01495603
vt 0.05209044 0.006596471
vt 0.04905904 0.0004363721
vt 0.02662668 -0.01568428
vt 0.04223238 -0.01805442
vt 0.05647122 0.006959201
vt 0.051019 0.01158832
vt 0.05383243 0.002052129
vt -0.04415721 -0.005350042
vt -0.02854293 -0.00303707
vt -0.02769049 0.009176791
vt -0.0001493634 0.03751165
vt 0.01330503 0.01612276
vt 0.01337937 0.02998876
vt -0.01694426 -0.01081251
vt -0.0006058135 -0.01456642
vt -0.003708017 -0.009986578
vt -0.02634175 -0.009369815
vt -0.01285167 -0.0169618
vt -0.004172859 -0.0124709
vt 0.01329226 0.0502225
vt 0.004390741 0.03837262
vt 0.02048733 0.03955159
vt -0.02396894 0.002585995
vt -0.01082794 0.003854878
vt -0.01981315 0.01166913
vt 0.004321869 -0.009416128
vt 0.007407195 8.411681E-05
vt -0.002393132 0.0003262899
vt 0.02750227 0.005746546
vt 0.02826398 0.01710222
vt 0.01995699 0.01381475
vt -0.02078828 0.07365233
vt -0.02369934 0.05662318
vt -0.01138243 0.06901956
vt -0.02677869 0.05629585
vt -0.03129771 0.04988958
vt -0.02206318 0.0449241
vt -0.03021047 0.05874955
vt -0.03130806 0.06989699
vt -0.03926101 0.06100731
vt -0.01652285 0.05320267
vt -0.02250599 0.06266994
vt -0.02965315 0.05529498
vt -0.02479954 0.04943352
vt -0.01777106 0.05692167
vt -0.02389335 0.06026061
vt -0.005178255 0.06824024
vt -0.01122123 0.07784703
vt -0.01403596 0.07208917
vt 0.002234721 0.08009155
vt -0.005115485 0.07588804
vt 0.003878148 0.05893591
vt 0.01169629 0.01154655
vt 0.02559544 -0.01091457
vt 0.04508708 -0.001420848
vt 0.03846096 0.01221299
vt 0.0189903 0.002676306
vt 0.03088414 -0.01098986
vt 0.03961299 -0.006960733
vt 0.03739407 0.001418656
vt 0.02129255 -0.01043447
vt -0.004555265 0.0002344194
vt -0.01351671 -0.01106275
vt -0.001883222 -0.01935562
vt 0.03315223 0.005233012
vt 0.02568614 -0.01300897
vt 0.03566691 -0.004386279
vt 0.04478163 -0.001490719
vt 0.04493055 -0.008564463
vt 0.04931525 -0.003430781
vt 0.04059342 0.01660651
vt 0.05854332 0.02583629
vt 0.05200956 0.04619848
vt 0.05051759 0.04958081
vt 0.0404879 0.0410635
vt 0.04646979 0.02053241
vt 0.06700372 0.06117701
vt 0.05857928 0.05734439
vt 0.07387742 0.04497052
vt 0.002618619 0.0332198
vt 0.01636027 0.05120044
vt 0.004698158 0.07046223
vt 0.002090046 0.06872986
vt 0.01368435 0.04942717
vt 0.02240864 0.06651948
vt 0.01674277 0.08543862
vt 0.03086252 0.07413432
vt 0.03231417 0.08215222
vt 0.04762902 0.05793064
vt 0.04690226 0.08358234
vt 0.02533467 0.09364969
vt -0.03276329 0.06700049
vt -0.02377866 0.05565391
vt -0.02027681 0.07922604
vt 0.02092515 0.05090811
vt 0.03900496 0.05805864
vt 0.03427105 0.06430779
vt 0.006325202 -0.02736243
vt 0.02611559 -0.02235098
vt 0.01816537 0.01207588
vt 0.02487249 -0.04639001
vt 0.005487751 -0.04001155
vt 0.008611509 -0.05033707
vt -0.00483739 -0.02461732
vt 0.01388614 -0.03332174
vt 0.02162469 0.0001330259
vt -0.01727159 0.01303511
vt -0.00915199 -0.004798963
vt 0.02051755 0.01766929
vt -0.01382012 0.03611261
vt -0.01214507 0.01555231
vt 0.0156583 0.01927723
vt -0.01459155 0.05141086
vt -0.02653988 0.03476464
vt 0.004664819 0.01747261
vt -0.02248364 0.0123387
vt -0.006386706 0.01116452
vt -0.01791802 0.03160948
vt -0.02356721 0.03519844
vt -0.01712297 0.0292038
vt -0.0141313 0.04890417
vt 0.02284274 0.01553661
vt 0.03166073 0.01431658
vt 0.02324567 0.02939695
vt -0.01707132 -0.008808927
vt -0.003834864 -0.007986371
vt -0.00834873 -0.004403662
vt -0.03096744 -0.002074799
vt -0.02726637 -0.01769727
vt -0.01844535 -0.01649936
vt 0.05000528 -0.01126252
vt 0.05393783 -0.00667744
vt 0.04509201 -0.003853876
vt 0.05997936 0.01686485
vt 0.06013358 0.02187969
vt 0.05102211 0.01931204
vt 0.05457922 0.04121288
vt 0.0522655 0.04621475
vt 0.04547844 0.0386076
vt 0.03207321 0.06212153
vt 0.02697935 0.06449238
vt 0.02622264 0.05377267
vt 0.01497183 0.06636257
vt 0.01007971 0.06524921
vt 0.01506376 0.05561658
vt -0.01505021 0.05455276
vt -0.01831184 0.05074039
vt -0.008829358 0.04566853
vt -0.02955386 0.03033876
vt -0.02974888 0.02468156
vt -0.01996238 0.02547619
vt -0.02754318 -0.002471445
vt -0.02583854 -0.007190194
vt -0.01776274 -0.001605528
vt -0.006881571 -0.02989899
vt -0.002648758 -0.03259261
vt 0.0003312826 -0.02323703
vt 0.07549207 -0.00931914
vt 0.06659323 -0.0052686
vt 0.06345923 -0.01043251
vt 0.03851504 0.06999891
vt 0.04334137 0.0671223
vt 0.04947672 0.07463545
vt -0.04315218 0.02535692
vt -0.04292979 0.03101311
vt -0.05164914 0.03392958
vt 0.07303074 0.07030289
vt 0.06731657 0.06292026
vt 0.07319944 0.054707
vt -0.06069679 0.05728583
vt -0.05808793 0.06683227
vt -0.06602102 0.0719457
vt -0.03021843 0.06480898
vt -0.03745658 0.07284795
vt -0.04178134 0.06394643
vt 0.09607276 0.03601842
vt 0.08441816 0.03277613
vt 0.08456916 0.02333659
vt 0.08270453 0.03879669
vt 0.08537272 0.02910209
vt 0.09697925 0.03251242
vt 0.07184834 0.03513138
vt 0.08174656 0.03645165
vt 0.07821354 0.04586559
vt 0.09660318 0.02752455
vt 0.083948 0.02607157
vt 0.08446361 0.01773217
vt -0.06755177 -0.05350838
vt -0.05886182 -0.04812417
vt -0.06320135 -0.04004499
vt 0.02735392 -0.04884815
vt 0.02726308 -0.05974821
vt 0.03640316 -0.05683943
vt -0.03103622 -0.04943728
vt -0.02375082 -0.05500752
vt -0.0183083 -0.04556302
vt -0.08373199 -0.002500602
vt -0.07405328 -0.00153567
vt -0.07388616 0.008469166
vt -0.02825403 0.0950665
vt -0.02293904 0.08726701
vt -0.01458737 0.09152145
vt -0.0003862773 0.08839642
vt -0.009243729 0.08533108
vt -0.004024027 0.07585635
vt -0.07293189 0.02766454
vt -0.07043907 0.03623746
vt -0.08110463 0.03957646
vt -0.05957515 0.0796998
vt -0.0567405 0.07717092
vt -0.04874564 0.08565769
vt -0.08505412 0.04252051
vt -0.08272411 0.05383931
vt -0.08639739 0.05480746
vt -0.04177456 0.03133894
vt -0.04509004 0.02610686
vt -0.03910974 0.0184009
vt -0.04859789 0.01800162
vt -0.04851076 0.01180816
vt -0.04001504 0.008802187
vt -0.03849071 0.004885083
vt -0.03472074 -2.959678E-05
vt -0.02682571 0.002684761
vt -0.01728586 -0.003286171
vt -0.01167942 -0.0006528726
vt -0.01378308 0.007823428
vt -0.01135685 0.003673387
vt -0.008451351 0.009143747
vt -0.01553569 0.01434761
vt -0.004573646 0.01197571
vt -0.005422854 0.01811128
vt -0.0149338 0.01826657
vt -0.003660201 0.02528202
vt -0.007846115 0.02984764
vt -0.01648583 0.02459726
vt -0.01305193 0.03572101
vt -0.01909884 0.03706318
vt -0.02353317 0.02834908
vt -0.02477742 -0.00999117
vt -0.04504661 -0.01558969
vt -0.02172172 -0.01937665
vt 0.02680968 -0.01591732
vt 0.04923492 0.0002132543
vt 0.02889418 0.005545955
vt -0.02731442 -0.01052036
vt -0.02434951 -0.01993492
vt -0.001908839 -0.009702839
vt -0.04593506 -0.002288858
vt -0.05686288 -0.002283906
vt -0.05519365 -0.01214993
vt 0.064796 -0.04933808
vt 0.05748492 -0.05554697
vt 0.06205381 -0.06469192
vt 0.1085976 -0.1882418
vt 0.1071469 -0.201219
vt 0.1107467 -0.2060967
vt 0.09231631 -0.1437181
vt 0.1304004 -0.1642211
vt 0.13294 -0.1587165
vt 0.2045669 -0.1044673
vt 0.2099569 -0.1016927
vt 0.2048591 -0.09841213
vt -0.03219111 -0.1856328
vt -0.0271294 -0.2066637
vt -0.0005285191 -0.1590082
vt 0.1075864 -0.19228
vt 0.09618518 -0.1631062
vt 0.06847142 -0.1736988
vt -0.01228053 -0.1307451
vt 0.007972834 -0.1475749
vt 0.0212511 -0.1214188
vt -0.0110615 -0.155001
vt -0.02989097 -0.1365919
vt -0.04396669 -0.1800735
vt 0.09107849 -0.1608831
vt 0.06903952 -0.1208448
vt 0.0631405 -0.1708693
vt -0.1009051 -0.138489
vt -0.08897716 -0.1105796
vt -0.1309606 -0.1454512
vt 0.04156466 -0.1739906
vt 0.05154936 -0.124619
vt 0.01084598 -0.1402974
vt 0.01437426 -0.07281572
vt 0.0227994 -0.09522092
vt 0.03824855 -0.07928507
vt 0.01085658 -0.09881368
vt 0.003261651 -0.07611362
vt -0.02302288 -0.1067845
vt 0.03450779 -0.09868534
vt 0.007213733 -0.06890931
vt -0.007101399 -0.1117716
vt -0.04346476 -0.1200472
vt -0.06818837 -0.1209709
vt -0.0781502 -0.1496411
vt -0.02827218 -0.08661796
vt -0.02206355 -0.1071442
vt -0.002128804 -0.08341488
vt 0.008988768 -0.1151678
vt 0.02140579 -0.0717176
vt -0.01011378 -0.09076348
vt 0.08126044 -0.03072273
vt 0.08776711 -0.04641721
vt 0.1054182 -0.02606889
vt 0.04211641 -0.06730627
vt 0.03729513 -0.0510149
vt 0.01817202 -0.06110139
vt -0.002998277 -0.03421518
vt -0.02239221 -0.02465977
vt -0.03547905 -0.05157111
vt -0.008031669 -0.0378676
vt -0.01726853 -0.02649365
vt -0.03420201 -0.04084234
vt 0.02552256 0.007451461
vt 0.03446769 -0.004153312
vt 0.04330736 0.02768299
vt -0.08838303 -0.02473406
vt -0.07490377 0.001982888
vt -0.09908252 0.006526309
vt -0.1055506 -0.1238125
vt -0.1356904 -0.1304005
vt -0.1443467 -0.1429341
vt -0.1767098 -0.09458081
vt -0.1918878 -0.1042268
vt -0.1862501 -0.1064554
vt -0.04405402 -0.1095188
vt -0.04907265 -0.08866967
vt -0.06877927 -0.1103977
vt -0.0196644 -0.1861764
vt -0.02123472 -0.2174595
vt -0.01352703 -0.206919
o group2033663355
g mesh2033663355
usemtl mat10
f 4/4/1 3/3/1 2/2/1 1/1/1
f 3/8/2 6/7/2 5/6/2 2/5/2
f 6/12/3 4/11/3 1/10/3 5/9/3
f 7/15/4 2/14/4 5/13/4
f 9/19/5 8/18/5 3/17/5 4/16/5
f 10/22/6 1/21/6 2/20/6
f 10/25/7 5/24/7 1/23/7
f 12/28/8 7/27/8 11/26/8
f 5/31/9 11/30/9 7/29/9
f 10/34/10 11/33/10 5/32/10
f 2/37/11 7/36/11 10/35/11
f 13/40/12 10/39/12 7/38/12
f 13/44/13 14/43/13 11/42/13 10/41/13
f 15/47/14 12/46/14 14/45/14
f 11/50/15 14/49/15 12/48/15
f 16/53/16 13/52/16 12/51/16
f 16/57/17 17/56/17 14/55/17 13/54/17
f 18/60/18 15/59/18 17/58/18
f 14/63/19 17/62/19 15/61/19
f 12/66/20 15/65/20 16/64/20
f 19/69/21 16/68/21 15/67/21
f 19/72/22 17/71/22 16/70/22
f 22/76/23 21/75/23 18/74/23 20/73/23
f 17/79/24 20/78/24 18/77/24
f 19/82/25 20/81/25 17/80/25
f 15/85/26 18/84/26 19/83/26
f 23/88/27 19/87/27 18/86/27
f 23/91/28 20/90/28 19/89/28
f 24/94/29 21/93/29 22/92/29
f 23/97/30 22/96/30 20/95/30
f 18/100/31 21/99/31 23/98/31
f 25/103/32 23/102/32 21/101/32
f 25/106/33 22/105/33 23/104/33
f 27/109/34 24/108/34 26/107/34
f 22/112/35 26/111/35 24/110/35
f 25/115/36 26/114/36 22/113/36
f 21/118/37 24/117/37 25/116/37
f 28/121/38 25/120/38 24/119/38
f 28/125/39 29/124/39 26/123/39 25/122/39
f 30/128/40 27/127/40 29/126/40
f 26/131/41 29/130/41 27/129/41
f 24/134/42 27/133/42 28/132/42
f 30/138/43 31/137/43 28/136/43 27/135/43
f 31/141/44 29/140/44 28/139/44
f 33/144/45 30/143/45 32/142/45
f 29/147/46 32/146/46 30/145/46
f 31/150/47 32/149/47 29/148/47
f 7/153/48 12/152/48 13/151/48
f 34/156/49 31/155/49 30/154/49
f 34/159/50 32/158/50 31/157/50
f 36/162/51 33/161/51 35/160/51
f 32/165/52 35/164/52 33/163/52
f 34/168/53 35/167/53 32/166/53
f 30/171/54 33/170/54 34/169/54
f 37/174/55 34/173/55 33/172/55
f 37/177/56 35/176/56 34/175/56
f 39/180/57 36/179/57 38/178/57
f 35/183/58 38/182/58 36/181/58
f 37/186/59 38/185/59 35/184/59
f 33/189/60 36/188/60 37/187/60
f 8/193/61 40/192/61 6/191/61 3/190/61
f 40/197/62 9/196/62 4/195/62 6/194/62
f 40/200/63 8/199/63 9/198/63
f 41/203/64 37/202/64 36/201/64
f 39/206/65 38/205/65 37/204/65
f 42/209/66 41/208/66 39/207/66
f 41/212/67 42/211/67 37/210/67
f 37/215/68 42/214/68 39/213/68
f 39/218/69 41/217/69 36/216/69
o group790836088
g mesh790836088
usemtl mat21
f 45/221/70 44/220/70 43/219/70
f 48/224/71 47/223/71 46/222/71
f 51/227/72 50/226/72 49/225/72
f 54/230/73 53/229/73 52/228/73
f 57/233/74 56/232/74 55/231/74
f 60/236/75 59/235/75 58/234/75
f 63/239/76 62/238/76 61/237/76
f 66/242/77 65/241/77 64/240/77
f 69/245/78 68/244/78 67/243/78
f 72/248/79 71/247/79 70/246/79
f 122/395/122 112/394/122 49/393/122
f 122/398/123 113/397/123 112/396/123
f 48/401/124 46/400/124 113/399/124
f 123/404/125 47/403/125 48/402/125
f 124/407/126 113/406/126 46/405/126
f 45/410/127 121/409/127 113/408/127
f 45/413/128 43/412/128 121/411/128
f 125/416/129 44/415/129 45/414/129
f 126/419/130 121/418/130 43/417/130
f 72/422/131 120/421/131 121/420/131
f 72/425/132 70/424/132 120/423/132
f 127/428/133 71/427/133 72/426/133
f 128/431/134 120/430/134 70/429/134
f 69/434/135 119/433/135 120/432/135
f 69/437/136 67/436/136 119/435/136
f 129/440/137 119/439/137 67/438/137
f 66/443/138 118/442/138 119/441/138
f 66/446/139 64/445/139 118/444/139
f 130/449/140 65/448/140 66/447/140
f 131/452/141 118/451/141 64/450/141
f 63/455/142 117/454/142 118/453/142
f 63/458/143 61/457/143 117/456/143
f 132/461/144 62/460/144 63/459/144
f 133/464/145 117/463/145 61/462/145
f 133/467/146 116/466/146 117/465/146
f 60/470/147 58/469/147 116/468/147
f 134/473/148 116/472/148 58/471/148
f 134/476/149 115/475/149 116/474/149
f 57/479/150 55/478/150 115/477/150
f 135/482/151 56/481/151 57/480/151
f 136/485/152 115/484/152 55/483/152
f 136/488/153 114/487/153 115/486/153
f 54/491/154 52/490/154 114/489/154
f 137/494/155 53/493/155 54/492/155
f 138/497/156 114/496/156 52/495/156
f 138/500/157 112/499/157 114/498/157
f 51/503/158 49/502/158 112/501/158
f 140/506/159 139/505/159 122/504/159
f 142/509/160 141/508/160 139/507/160
f 143/512/161 123/511/161 141/510/161
f 143/515/162 141/514/162 142/513/162
f 146/518/163 145/517/163 144/516/163
f 148/521/164 147/520/164 145/519/164
f 148/524/165 146/523/165 149/522/165
f 151/527/166 150/526/166 54/525/166
f 152/530/167 137/529/167 150/528/167
f 153/533/168 152/532/168 150/531/168
f 154/536/169 137/535/169 152/534/169
f 154/539/170 152/538/170 153/537/170
f 155/542/171 45/541/171 124/540/171
f 157/545/172 156/544/172 155/543/172
f 158/548/173 125/547/173 156/546/173
f 158/551/174 156/550/174 157/549/174
f 160/555/175 159/554/175 72/553/175 126/552/175
f 162/558/176 161/557/176 127/556/176
f 163/562/177 162/561/177 159/560/177 160/559/177
f 161/565/178 162/564/178 163/563/178
f 164/568/179 69/567/179 128/566/179
f 166/571/180 164/570/180 165/569/180
f 168/574/181 167/573/181 166/572/181
f 168/577/182 166/576/182 165/575/182
f 129/580/183 169/579/183 66/578/183
f 171/583/184 170/582/184 169/581/184
f 172/586/185 130/585/185 170/584/185
f 172/589/186 170/588/186 171/587/186
f 173/592/187 63/591/187 131/590/187
f 174/595/188 132/594/188 173/593/188
f 175/598/189 174/597/189 173/596/189
f 176/601/190 132/600/190 174/599/190
f 176/604/191 174/603/191 175/602/191
f 178/607/192 177/606/192 134/605/192
f 179/610/193 135/609/193 177/608/193
f 180/613/194 179/612/194 178/611/194
f 181/616/195 179/615/195 180/614/195
f 133/619/196 182/618/196 60/617/196
f 184/622/197 183/621/197 133/620/197
f 186/625/198 185/624/198 183/623/198
f 186/628/199 183/627/199 184/626/199
f 158/631/200 157/630/200 125/629/200
f 125/634/201 124/633/201 44/632/201
f 44/637/202 46/636/202 43/635/202
f 44/640/203 124/639/203 46/638/203
f 71/643/204 126/642/204 43/641/204
f 71/646/205 43/645/205 70/644/205
f 127/649/206 126/648/206 71/647/206
f 161/652/207 163/651/207 127/650/207
f 68/655/208 70/654/208 67/653/208
f 68/658/209 128/657/209 70/656/209
f 168/661/210 165/660/210 167/659/210
f 65/664/211 67/663/211 64/662/211
f 65/667/212 129/666/212 67/665/212
f 130/670/213 129/669/213 65/668/213
f 172/673/214 171/672/214 130/671/214
f 176/676/215 175/675/215 132/674/215
f 175/679/216 131/678/216 132/677/216
f 132/682/217 131/681/217 62/680/217
f 62/685/218 64/684/218 61/683/218
f 62/688/219 131/687/219 64/686/219
f 59/691/220 133/690/220 61/689/220
f 59/694/221 61/693/221 58/692/221
f 56/697/222 58/696/222 55/695/222
f 56/700/223 134/699/223 58/698/223
f 186/703/224 184/702/224 185/701/224
f 185/706/225 133/705/225 59/704/225
f 181/709/226 180/708/226 135/707/226
f 135/712/227 134/711/227 56/710/227
f 53/715/228 136/714/228 55/713/228
f 53/718/229 55/717/229 52/716/229
f 47/721/230 122/720/230 49/719/230
f 47/724/231 49/723/231 46/722/231
f 50/727/232 52/726/232 49/725/232
f 137/730/233 136/729/233 53/728/233
f 153/733/234 151/732/234 137/731/234
f 154/736/235 153/735/235 137/734/235
f 147/739/236 187/738/236 50/737/236
f 148/742/237 149/741/237 147/740/237
f 143/745/238 142/744/238 123/743/238
f 123/748/239 122/747/239 47/746/239
f 142/751/240 140/750/240 123/749/240
f 139/754/241 141/753/241 123/752/241
f 48/757/242 139/756/242 123/755/242
f 50/760/243 144/759/243 147/758/243
f 147/763/244 144/762/244 145/761/244
f 149/766/245 187/765/245 147/764/245
f 125/769/246 155/768/246 124/767/246
f 157/772/247 155/771/247 125/770/247
f 45/775/248 156/774/248 125/773/248
f 127/778/249 160/777/249 126/776/249
f 163/781/250 160/780/250 127/779/250
f 72/784/251 159/783/251 127/782/251
f 127/787/252 159/786/252 162/785/252
f 54/790/253 150/789/253 137/788/253
f 137/793/254 151/792/254 136/791/254
f 138/796/255 51/795/255 112/794/255
f 144/799/256 51/798/256 187/797/256
f 146/802/257 187/801/257 149/800/257
f 50/805/258 51/804/258 144/803/258
f 167/808/259 128/807/259 68/806/259
f 164/811/260 166/810/260 167/809/260
f 69/814/261 167/813/261 68/812/261
f 171/817/262 129/816/262 130/815/262
f 169/820/263 170/819/263 130/818/263
f 66/823/264 169/822/264 130/821/264
f 63/826/265 173/825/265 132/824/265
f 185/829/266 60/828/266 182/827/266
f 185/832/267 182/831/267 183/830/267
f 185/835/268 184/834/268 133/833/268
f 135/838/269 178/837/269 134/836/269
f 180/841/270 178/840/270 135/839/270
f 179/844/271 181/843/271 135/842/271
f 57/847/272 177/846/272 135/845/272
f 122/850/273 48/849/273 113/848/273
f 139/853/274 48/852/274 122/851/274
f 139/856/275 140/855/275 142/854/275
f 123/859/276 140/858/276 122/857/276
f 146/862/277 144/861/277 187/860/277
f 148/865/278 145/864/278 146/863/278
f 136/868/279 54/867/279 114/866/279
f 54/871/280 136/870/280 151/869/280
f 150/874/281 151/873/281 153/872/281
f 134/877/282 57/876/282 115/875/282
f 177/880/283 57/879/283 134/878/283
f 179/883/284 177/882/284 178/881/284
f 133/886/285 60/885/285 116/884/285
f 185/889/286 59/888/286 60/887/286
f 183/892/287 182/891/287 133/890/287
f 113/895/288 124/894/288 45/893/288
f 156/898/289 45/897/289 155/896/289
f 121/901/290 126/900/290 72/899/290
f 120/904/291 128/903/291 69/902/291
f 119/907/292 129/906/292 66/905/292
f 118/910/293 131/909/293 63/908/293
f 169/913/294 129/912/294 171/911/294
f 173/916/295 131/915/295 175/914/295
f 167/919/296 165/918/296 128/917/296
f 69/922/297 164/921/297 167/920/297
f 128/925/298 165/924/298 164/923/298
f 50/1036/335 187/1035/335 138/1034/335
f 138/1039/336 187/1038/336 51/1037/336
f 52/1042/337 50/1041/337 138/1040/337
usemtl mat12
f 73/251/80 67/250/80 70/249/80
f 103/318/102 64/317/102 67/316/102
f 104/321/103 61/320/103 64/319/103
f 104/325/104 105/324/104 58/323/104 61/322/104
f 106/328/105 55/327/105 58/326/105
f 107/331/106 52/330/106 55/329/106
f 108/334/107 49/333/107 52/332/107
f 109/337/108 46/336/108 49/335/108
f 110/340/109 43/339/109 46/338/109
f 110/344/110 111/343/110 70/342/110 43/341/110
f 110/354/111 109/353/111 108/352/111 107/351/111 106/350/111 105/349/111 104/348/111 103/347/111 73/346/111 111/345/111
f 70/1012/327 111/1011/327 73/1010/327
f 67/1015/328 73/1014/328 103/1013/328
f 64/1018/329 103/1017/329 104/1016/329
f 58/1021/330 105/1020/330 106/1019/330
f 55/1024/331 106/1023/331 107/1022/331
f 52/1027/332 107/1026/332 108/1025/332
f 49/1030/333 108/1029/333 109/1028/333
f 46/1033/334 109/1032/334 110/1031/334
usemtl mat10
f 76/254/81 75/253/81 74/252/81
f 76/257/82 77/256/82 75/255/82
f 79/260/83 78/259/83 77/258/83
f 81/263/84 80/262/84 78/261/84
f 81/266/85 82/265/85 80/264/85
f 84/269/86 83/268/86 82/267/86
f 86/272/87 85/271/87 83/270/87
f 88/275/88 87/274/88 85/273/88
f 88/278/89 89/277/89 87/276/89
f 90/281/90 74/280/90 89/279/90
f 92/284/91 91/283/91 76/282/91
f 91/287/92 79/286/92 76/285/92
f 95/291/93 94/290/93 93/289/93 79/288/93
f 94/294/94 96/293/94 81/292/94
f 97/297/95 84/296/95 81/295/95
f 97/300/96 98/299/96 84/298/96
f 98/303/97 99/302/97 86/301/97
f 100/306/98 88/305/98 86/304/98
f 100/309/99 101/308/99 90/307/99
f 101/312/100 92/311/100 90/310/100
f 102/315/101 91/314/101 92/313/101
f 113/358/112 75/357/112 77/356/112 112/355/112
f 112/362/113 77/361/113 78/360/113 114/359/113
f 114/366/114 78/365/114 80/364/114 115/363/114
f 115/370/115 80/369/115 82/368/115 116/367/115
f 116/373/116 82/372/116 117/371/116
f 117/376/117 85/375/117 118/374/117
f 118/380/118 85/379/118 87/378/118 119/377/118
f 119/384/119 87/383/119 89/382/119 120/381/119
f 120/388/120 89/387/120 74/386/120 121/385/120
f 121/392/121 74/391/121 75/390/121 113/389/121
f 102/928/299 95/927/299 91/926/299
f 102/931/300 94/930/300 95/929/300
f 102/934/301 96/933/301 94/932/301
f 102/937/302 97/936/302 96/935/302
f 102/940/303 98/939/303 97/938/303
f 102/943/304 99/942/304 98/941/304
f 102/946/305 100/945/305 99/944/305
f 102/949/306 101/948/306 100/947/306
f 102/952/307 92/951/307 101/950/307
f 91/955/308 95/954/308 79/953/308
f 81/958/309 96/957/309 97/956/309
f 86/961/310 99/960/310 100/959/310
f 81/964/311 84/963/311 82/962/311
f 83/967/312 188/966/312 86/965/312
f 86/970/313 188/969/313 98/968/313
f 79/973/314 93/972/314 78/971/314
f 78/976/315 93/975/315 81/974/315
f 81/979/316 93/978/316 94/977/316
f 76/982/317 79/981/317 77/980/317
f 90/985/318 189/984/318 74/983/318
f 76/988/319 189/987/319 92/986/319
f 92/991/320 189/990/320 90/989/320
f 88/994/321 90/993/321 89/992/321
f 84/997/322 188/996/322 83/995/322
f 98/1000/323 188/999/323 84/998/323
f 85/1003/324 86/1002/324 88/1001/324
f 82/1006/325 83/1005/325 117/1004/325
f 117/1009/326 83/1008/326 85/1007/326
f 90/1045/338 88/1044/338 100/1043/338
f 74/1048/339 189/1047/339 76/1046/339
o group1291483580
g mesh1291483580
usemtl mat10
f 192/1051/340 191/1050/340 190/1049/340
f 191/1054/341 194/1053/341 193/1052/341
f 191/1057/342 192/1056/342 194/1055/342
f 196/1060/343 190/1059/343 195/1058/343
f 193/1063/344 195/1062/344 191/1061/344
f 198/1066/345 196/1065/345 197/1064/345
f 195/1069/346 197/1068/346 196/1067/346
f 193/1072/347 197/1071/347 195/1070/347
f 190/1075/348 196/1074/348 193/1073/348
f 199/1078/349 197/1077/349 193/1076/349
f 201/1081/350 198/1080/350 200/1079/350
f 197/1084/351 200/1083/351 198/1082/351
f 199/1087/352 200/1086/352 197/1085/352
f 193/1090/353 196/1089/353 199/1088/353
f 202/1093/354 199/1092/354 198/1091/354
f 202/1096/355 200/1095/355 199/1094/355
f 204/1099/356 201/1098/356 203/1097/356
f 200/1102/357 203/1101/357 201/1100/357
f 202/1105/358 203/1104/358 200/1103/358
f 198/1108/359 201/1107/359 202/1106/359
f 204/1111/360 202/1110/360 201/1109/360
f 204/1114/361 203/1113/361 202/1112/361
f 194/1117/362 190/1116/362 193/1115/362
f 194/1120/363 192/1119/363 190/1118/363
f 196/1123/364 198/1122/364 199/1121/364
f 190/1126/365 191/1125/365 195/1124/365
